<svg height="2846" width="720" xmlns="http://www.w3.org/2000/svg">
<rect height="2846" fill="#555" width="720"></rect>
<text fill="#7f7" font-family="Courier New" font-size="12" xml:space="preserve">
<tspan x="10" y="26">20 megabytes installed</tspan>
<tspan x="10" y="42"></tspan>
<tspan x="10" y="58">node_modules</tspan>
<tspan x="10" y="74">├── UNMET PEER DEPENDENCY grunt@~0.4.1</tspan>
<tspan x="10" y="90">└─┬ grunt-preen@1.2.0 </tspan>
<tspan x="10" y="106">  └─┬ preen@1.2.0 </tspan>
<tspan x="10" y="122">    ├── async@0.2.10 </tspan>
<tspan x="10" y="138">    ├─┬ bower@0.10.0 </tspan>
<tspan x="10" y="154">    │ ├── abbrev@1.0.9 </tspan>
<tspan x="10" y="170">    │ ├── archy@0.0.2 </tspan>
<tspan x="10" y="186">    │ ├── colors@0.6.2 </tspan>
<tspan x="10" y="202">    │ ├─┬ fstream@0.1.31 </tspan>
<tspan x="10" y="218">    │ │ ├─┬ graceful-fs@3.0.11 </tspan>
<tspan x="10" y="234">    │ │ │ └── natives@1.1.0 </tspan>
<tspan x="10" y="250">    │ │ ├── inherits@2.0.3 </tspan>
<tspan x="10" y="266">    │ │ └── mkdirp@0.5.1 </tspan>
<tspan x="10" y="282">    │ ├─┬ glob@3.1.21 </tspan>
<tspan x="10" y="298">    │ │ ├── graceful-fs@1.2.3 </tspan>
<tspan x="10" y="314">    │ │ └── inherits@1.0.2 </tspan>
<tspan x="10" y="330">    │ ├── hogan.js@2.0.0 </tspan>
<tspan x="10" y="346">    │ ├── lodash@1.0.2 </tspan>
<tspan x="10" y="362">    │ ├── mkdirp@0.3.5 </tspan>
<tspan x="10" y="378">    │ ├── nopt@2.0.0 </tspan>
<tspan x="10" y="394">    │ ├─┬ promptly@0.1.0 </tspan>
<tspan x="10" y="410">    │ │ └─┬ read@1.0.7 </tspan>
<tspan x="10" y="426">    │ │   └── mute-stream@0.0.7 </tspan>
<tspan x="10" y="442">    │ ├─┬ rc@0.3.5 </tspan>
<tspan x="10" y="458">    │ │ ├── deep-extend@0.2.11 </tspan>
<tspan x="10" y="474">    │ │ └── ini@1.1.0 </tspan>
<tspan x="10" y="490">    │ ├─┬ read-package-json@0.1.13 </tspan>
<tspan x="10" y="506">    │ │ ├── graceful-fs@1.2.3 </tspan>
<tspan x="10" y="522">    │ │ ├── lru-cache@2.0.4 </tspan>
<tspan x="10" y="538">    │ │ ├─┬ npmlog@0.1.1 </tspan>
<tspan x="10" y="554">    │ │ │ └── ansi@0.3.1 </tspan>
<tspan x="10" y="570">    │ │ ├── semver@1.1.4 </tspan>
<tspan x="10" y="586">    │ │ └── slide@1.1.6 </tspan>
<tspan x="10" y="602">    │ ├─┬ request@2.11.4 </tspan>
<tspan x="10" y="618">    │ │ ├─┬ form-data@0.0.3 </tspan>
<tspan x="10" y="634">    │ │ │ ├── async@0.1.9 </tspan>
<tspan x="10" y="650">    │ │ │ └─┬ combined-stream@0.0.3 </tspan>
<tspan x="10" y="666">    │ │ │   └── delayed-stream@0.0.5 </tspan>
<tspan x="10" y="682">    │ │ └── mime@1.2.7 </tspan>
<tspan x="10" y="698">    │ ├─┬ rimraf@2.0.3 </tspan>
<tspan x="10" y="714">    │ │ └── graceful-fs@1.1.14 </tspan>
<tspan x="10" y="730">    │ ├── semver@2.0.11 </tspan>
<tspan x="10" y="746">    │ ├── stable@0.1.6 </tspan>
<tspan x="10" y="762">    │ ├─┬ tar@0.1.20 </tspan>
<tspan x="10" y="778">    │ │ └── block-stream@0.0.9 </tspan>
<tspan x="10" y="794">    │ ├─┬ tmp@0.0.31 </tspan>
<tspan x="10" y="810">    │ │ └── os-tmpdir@1.0.2 </tspan>
<tspan x="10" y="826">    │ ├─┬ unzip@0.1.7 </tspan>
<tspan x="10" y="842">    │ │ ├─┬ binary@0.3.0 </tspan>
<tspan x="10" y="858">    │ │ │ ├── buffers@0.1.1 </tspan>
<tspan x="10" y="874">    │ │ │ └─┬ chainsaw@0.1.0 </tspan>
<tspan x="10" y="890">    │ │ │   └── traverse@0.3.9 </tspan>
<tspan x="10" y="906">    │ │ ├── match-stream@0.0.1 </tspan>
<tspan x="10" y="922">    │ │ ├─┬ pullstream@0.4.1 </tspan>
<tspan x="10" y="938">    │ │ │ ├── over@0.0.5 </tspan>
<tspan x="10" y="954">    │ │ │ └── slice-stream@1.0.0 </tspan>
<tspan x="10" y="970">    │ │ ├─┬ readable-stream@1.0.34 </tspan>
<tspan x="10" y="986">    │ │ │ ├── core-util-is@1.0.2 </tspan>
<tspan x="10" y="1002">    │ │ │ ├── isarray@0.0.1 </tspan>
<tspan x="10" y="1018">    │ │ │ └── string_decoder@0.10.31 </tspan>
<tspan x="10" y="1034">    │ │ └── setimmediate@1.0.5 </tspan>
<tspan x="10" y="1050">    │ ├─┬ update-notifier@0.1.10 </tspan>
<tspan x="10" y="1066">    │ │ ├─┬ chalk@0.4.0 </tspan>
<tspan x="10" y="1082">    │ │ │ ├── ansi-styles@1.0.0 </tspan>
<tspan x="10" y="1098">    │ │ │ ├── has-color@0.1.7 </tspan>
<tspan x="10" y="1114">    │ │ │ └── strip-ansi@0.1.1 </tspan>
<tspan x="10" y="1130">    │ │ ├─┬ configstore@0.3.2 </tspan>
<tspan x="10" y="1146">    │ │ │ ├─┬ js-yaml@3.8.3 </tspan>
<tspan x="10" y="1162">    │ │ │ │ ├─┬ argparse@1.0.9 </tspan>
<tspan x="10" y="1178">    │ │ │ │ │ └── sprintf-js@1.0.3 </tspan>
<tspan x="10" y="1194">    │ │ │ │ └── esprima@3.1.3 </tspan>
<tspan x="10" y="1210">    │ │ │ ├── mkdirp@0.5.1 </tspan>
<tspan x="10" y="1226">    │ │ │ ├── object-assign@2.1.1 </tspan>
<tspan x="10" y="1242">    │ │ │ ├─┬ osenv@0.1.4 </tspan>
<tspan x="10" y="1258">    │ │ │ │ └── os-homedir@1.0.2 </tspan>
<tspan x="10" y="1274">    │ │ │ ├── user-home@1.1.1 </tspan>
<tspan x="10" y="1290">    │ │ │ ├── uuid@2.0.3 </tspan>
<tspan x="10" y="1306">    │ │ │ └── xdg-basedir@1.0.1 </tspan>
<tspan x="10" y="1322">    │ │ ├─┬ request@2.81.0 </tspan>
<tspan x="10" y="1338">    │ │ │ ├── aws-sign2@0.6.0 </tspan>
<tspan x="10" y="1354">    │ │ │ ├── aws4@1.6.0 </tspan>
<tspan x="10" y="1370">    │ │ │ ├── caseless@0.12.0 </tspan>
<tspan x="10" y="1386">    │ │ │ ├─┬ combined-stream@1.0.5 </tspan>
<tspan x="10" y="1402">    │ │ │ │ └── delayed-stream@1.0.0 </tspan>
<tspan x="10" y="1418">    │ │ │ ├── extend@3.0.0 </tspan>
<tspan x="10" y="1434">    │ │ │ ├── forever-agent@0.6.1 </tspan>
<tspan x="10" y="1450">    │ │ │ ├─┬ form-data@2.1.4 </tspan>
<tspan x="10" y="1466">    │ │ │ │ └── asynckit@0.4.0 </tspan>
<tspan x="10" y="1482">    │ │ │ ├─┬ har-validator@4.2.1 </tspan>
<tspan x="10" y="1498">    │ │ │ │ ├─┬ ajv@4.11.7 </tspan>
<tspan x="10" y="1514">    │ │ │ │ │ ├── co@4.6.0 </tspan>
<tspan x="10" y="1530">    │ │ │ │ │ └─┬ json-stable-stringify@1.0.1 </tspan>
<tspan x="10" y="1546">    │ │ │ │ │   └── jsonify@0.0.0 </tspan>
<tspan x="10" y="1562">    │ │ │ │ └── har-schema@1.0.5 </tspan>
<tspan x="10" y="1578">    │ │ │ ├─┬ hawk@3.1.3 </tspan>
<tspan x="10" y="1594">    │ │ │ │ ├── boom@2.10.1 </tspan>
<tspan x="10" y="1610">    │ │ │ │ ├── cryptiles@2.0.5 </tspan>
<tspan x="10" y="1626">    │ │ │ │ ├── hoek@2.16.3 </tspan>
<tspan x="10" y="1642">    │ │ │ │ └── sntp@1.0.9 </tspan>
<tspan x="10" y="1658">    │ │ │ ├─┬ http-signature@1.1.1 </tspan>
<tspan x="10" y="1674">    │ │ │ │ ├── assert-plus@0.2.0 </tspan>
<tspan x="10" y="1690">    │ │ │ │ ├─┬ jsprim@1.4.0 </tspan>
<tspan x="10" y="1706">    │ │ │ │ │ ├── assert-plus@1.0.0 </tspan>
<tspan x="10" y="1722">    │ │ │ │ │ ├── extsprintf@1.0.2 </tspan>
<tspan x="10" y="1738">    │ │ │ │ │ ├── json-schema@0.2.3 </tspan>
<tspan x="10" y="1754">    │ │ │ │ │ └── verror@1.3.6 </tspan>
<tspan x="10" y="1770">    │ │ │ │ └─┬ sshpk@1.13.0 </tspan>
<tspan x="10" y="1786">    │ │ │ │   ├── asn1@0.2.3 </tspan>
<tspan x="10" y="1802">    │ │ │ │   ├── assert-plus@1.0.0 </tspan>
<tspan x="10" y="1818">    │ │ │ │   ├── bcrypt-pbkdf@1.0.1 </tspan>
<tspan x="10" y="1834">    │ │ │ │   ├─┬ dashdash@1.14.1 </tspan>
<tspan x="10" y="1850">    │ │ │ │   │ └── assert-plus@1.0.0 </tspan>
<tspan x="10" y="1866">    │ │ │ │   ├── ecc-jsbn@0.1.1 </tspan>
<tspan x="10" y="1882">    │ │ │ │   ├─┬ getpass@0.1.6 </tspan>
<tspan x="10" y="1898">    │ │ │ │   │ └── assert-plus@1.0.0 </tspan>
<tspan x="10" y="1914">    │ │ │ │   ├── jodid25519@1.0.2 </tspan>
<tspan x="10" y="1930">    │ │ │ │   ├── jsbn@0.1.1 </tspan>
<tspan x="10" y="1946">    │ │ │ │   └── tweetnacl@0.14.5 </tspan>
<tspan x="10" y="1962">    │ │ │ ├── is-typedarray@1.0.0 </tspan>
<tspan x="10" y="1978">    │ │ │ ├── isstream@0.1.2 </tspan>
<tspan x="10" y="1994">    │ │ │ ├── json-stringify-safe@5.0.1 </tspan>
<tspan x="10" y="2010">    │ │ │ ├─┬ mime-types@2.1.15 </tspan>
<tspan x="10" y="2026">    │ │ │ │ └── mime-db@1.27.0 </tspan>
<tspan x="10" y="2042">    │ │ │ ├── oauth-sign@0.8.2 </tspan>
<tspan x="10" y="2058">    │ │ │ ├── performance-now@0.2.0 </tspan>
<tspan x="10" y="2074">    │ │ │ ├── qs@6.4.0 </tspan>
<tspan x="10" y="2090">    │ │ │ ├── safe-buffer@5.0.1 </tspan>
<tspan x="10" y="2106">    │ │ │ ├── stringstream@0.0.5 </tspan>
<tspan x="10" y="2122">    │ │ │ ├─┬ tough-cookie@2.3.2 </tspan>
<tspan x="10" y="2138">    │ │ │ │ └── punycode@1.4.1 </tspan>
<tspan x="10" y="2154">    │ │ │ ├── tunnel-agent@0.6.0 </tspan>
<tspan x="10" y="2170">    │ │ │ └── uuid@3.0.1 </tspan>
<tspan x="10" y="2186">    │ │ └── semver@2.3.2 </tspan>
<tspan x="10" y="2202">    │ └── which@1.0.9 </tspan>
<tspan x="10" y="2218">    ├─┬ fs.extra@1.2.1 </tspan>
<tspan x="10" y="2234">    │ ├─┬ fs-extra@0.6.4 </tspan>
<tspan x="10" y="2250">    │ │ ├── jsonfile@1.0.1 </tspan>
<tspan x="10" y="2266">    │ │ ├── ncp@0.4.2 </tspan>
<tspan x="10" y="2282">    │ │ └── rimraf@2.2.8 </tspan>
<tspan x="10" y="2298">    │ └─┬ walk@2.2.1 </tspan>
<tspan x="10" y="2314">    │   └─┬ forEachAsync@2.2.1 </tspan>
<tspan x="10" y="2330">    │     └── sequence@2.2.1 </tspan>
<tspan x="10" y="2346">    ├─┬ minimatch@0.2.14 </tspan>
<tspan x="10" y="2362">    │ ├── lru-cache@2.7.3 </tspan>
<tspan x="10" y="2378">    │ └── sigmund@1.0.1 </tspan>
<tspan x="10" y="2394">    ├─┬ optimist@0.6.1 </tspan>
<tspan x="10" y="2410">    │ ├── minimist@0.0.8 </tspan>
<tspan x="10" y="2426">    │ └── wordwrap@0.0.3 </tspan>
<tspan x="10" y="2442">    ├─┬ readdirp@0.3.3 </tspan>
<tspan x="10" y="2458">    │ └── graceful-fs@2.0.3 </tspan>
<tspan x="10" y="2474">    └─┬ winston@0.7.3 </tspan>
<tspan x="10" y="2490">      ├── cycle@1.0.3 </tspan>
<tspan x="10" y="2506">      ├── eyes@0.1.8 </tspan>
<tspan x="10" y="2522">      ├── pkginfo@0.3.1 </tspan>
<tspan x="10" y="2538">      ├─┬ request@2.16.6 </tspan>
<tspan x="10" y="2554">      │ ├── aws-sign@0.2.0 </tspan>
<tspan x="10" y="2570">      │ ├── cookie-jar@0.2.0 </tspan>
<tspan x="10" y="2586">      │ ├── forever-agent@0.2.0 </tspan>
<tspan x="10" y="2602">      │ ├─┬ form-data@0.0.10 </tspan>
<tspan x="10" y="2618">      │ │ └─┬ combined-stream@0.0.7 </tspan>
<tspan x="10" y="2634">      │ │   └── delayed-stream@0.0.5 </tspan>
<tspan x="10" y="2650">      │ ├─┬ hawk@0.10.2 </tspan>
<tspan x="10" y="2666">      │ │ ├── boom@0.3.8 </tspan>
<tspan x="10" y="2682">      │ │ ├── cryptiles@0.1.3 </tspan>
<tspan x="10" y="2698">      │ │ ├── hoek@0.7.6 </tspan>
<tspan x="10" y="2714">      │ │ └── sntp@0.1.4 </tspan>
<tspan x="10" y="2730">      │ ├── json-stringify-safe@3.0.0 </tspan>
<tspan x="10" y="2746">      │ ├── mime@1.2.11 </tspan>
<tspan x="10" y="2762">      │ ├── node-uuid@1.4.8 </tspan>
<tspan x="10" y="2778">      │ ├── oauth-sign@0.2.0 </tspan>
<tspan x="10" y="2794">      │ ├── qs@0.5.6 </tspan>
<tspan x="10" y="2810">      │ └── tunnel-agent@0.2.0 </tspan>
<tspan x="10" y="2826">      └── stack-trace@0.0.9</tspan>
</text>
</svg>
